<svg xmlns="http://www.w3.org/2000/svg" viewBox="0 0 640 400" role="img" aria-label="Khans Jersey City">
  <rect width="640" height="400" fill="#1c2330"/>
  <!-- city skyline -->
  <g fill="#2a3447">
    <rect x="20" y="120" width="60" height="180"/>
    <rect x="90" y="80" width="50" height="220"/>
    <rect x="150" y="140" width="44" height="160"/>
    <rect x="450" y="100" width="56" height="200"/>
    <rect x="516" y="60" width="48" height="240"/>
    <rect x="572" y="130" width="50" height="170"/>
  </g>
  <g fill="#f6d56a" opacity=".8">
    <rect x="104" y="100" width="8" height="10"/><rect x="120" y="120" width="8" height="10"/>
    <rect x="528" y="90" width="8" height="10"/><rect x="544" y="120" width="8" height="10"/>
    <rect x="36" y="140" width="8" height="10"/>
  </g>
  <rect y="300" width="640" height="100" fill="#11161f"/>
  <!-- building -->
  <rect x="180" y="150" width="280" height="160" fill="#2c2017"/>
  <path d="M168 175 L472 175 L472 193 L168 193 Z" fill="#e8a531"/>
  <path d="M168 193 q19 20 38 0 q19 20 38 0 q19 20 38 0 q19 20 38 0 q19 20 38 0 q19 20 38 0 q19 20 38 0 q19 20 38 0 L472 193 Z" fill="#c8432b"/>
  <text x="320" y="166" font-family="Bebas Neue, Arial Narrow, sans-serif" font-size="34" fill="#e8a531" text-anchor="middle" letter-spacing="4">KHANS</text>
  <rect x="200" y="220" width="110" height="90" fill="#f6d56a" opacity=".85"/>
  <rect x="330" y="220" width="110" height="90" fill="#f6d56a" opacity=".85"/>
  <rect x="305" y="250" width="30" height="60" fill="#3a2a1d"/>
  <g transform="translate(320 70)">
    <path d="M0 0 C-26 0 -26 34 0 60 C26 34 26 0 0 0 Z" fill="#e8a531"/>
    <circle cx="0" cy="22" r="11" fill="#1c140e"/>
  </g>
</svg>
