<svg xmlns="http://www.w3.org/2000/svg" viewBox="0 0 600 480" role="img" aria-label="Smoked wings">
  <defs>
    <radialGradient id="wbg" cx="50%" cy="40%" r="70%">
      <stop offset="0%" stop-color="#fff6e6"/><stop offset="100%" stop-color="#f1e6d2"/>
    </radialGradient>
  </defs>
  <rect width="600" height="480" fill="url(#wbg)"/>
  <ellipse cx="300" cy="300" rx="210" ry="116" fill="#fff" stroke="#e3d6bd" stroke-width="4"/>
  <ellipse cx="300" cy="300" rx="172" ry="92" fill="#f6efe1"/>
  <g fill="#c46a1f" stroke="#8a4512" stroke-width="3">
    <g transform="rotate(-18 230 260)"><rect x="190" y="232" width="92" height="58" rx="28"/><circle cx="282" cy="261" r="14" fill="#f3ead7" stroke="#e3d6bd"/></g>
    <g transform="rotate(24 360 250)"><rect x="318" y="222" width="92" height="58" rx="28"/><circle cx="410" cy="251" r="14" fill="#f3ead7" stroke="#e3d6bd"/></g>
    <g transform="rotate(-8 300 320)"><rect x="252" y="296" width="92" height="58" rx="28"/><circle cx="344" cy="325" r="14" fill="#f3ead7" stroke="#e3d6bd"/></g>
    <g transform="rotate(14 250 340)"><rect x="200" y="316" width="86" height="54" rx="26"/><circle cx="286" cy="343" r="13" fill="#f3ead7" stroke="#e3d6bd"/></g>
    <g transform="rotate(-26 390 330)"><rect x="350" y="306" width="86" height="54" rx="26"/><circle cx="436" cy="333" r="13" fill="#f3ead7" stroke="#e3d6bd"/></g>
  </g>
  <!-- glaze sheen -->
  <g fill="#e8a531" opacity=".55"><circle cx="232" cy="252" r="6"/><circle cx="356" cy="240" r="6"/><circle cx="296" cy="318" r="6"/></g>
  <!-- scallions -->
  <g fill="#5fa845"><circle cx="270" cy="300" r="4"/><circle cx="330" cy="290" r="4"/><circle cx="310" cy="340" r="4"/><circle cx="360" cy="320" r="4"/></g>
</svg>
